<svg width="45" height="42" viewBox="0 0 45 42" fill="none" xmlns="http://www.w3.org/2000/svg">
<path fill-rule="evenodd" clip-rule="evenodd" d="M0 19.6875C0 8.92001 9.89692 0 22.4121 0C34.9551 0 45 8.94014 45 19.6875C45 30.4288 34.962 39.375 22.4121 39.375C19.5045 39.375 16.6874 38.8964 14.0251 37.9513C11.333 40.5344 7.71187 42 3.95508 42C2.7813 42 2.19604 40.5826 3.02291 39.7594C5.00071 37.7904 5.79779 34.9345 5.14125 32.2393C1.82312 28.7184 0 24.2744 0 19.6875ZM14.1713 35.2011C16.7636 36.2289 19.5362 36.7675 22.4121 36.7675C33.4132 36.7675 42.3809 29.0958 42.3809 19.6875C42.3809 10.2792 33.4132 2.6075 22.4121 2.6075C11.508 2.6075 2.61914 10.2792 2.61914 19.6875C2.61914 23.6982 4.28396 27.5962 7.27497 30.6633C7.42685 30.819 7.53759 31.0097 7.59718 31.2185C8.35348 33.8657 8.03593 36.6598 6.79351 39.0301C9.04843 38.4748 11.1185 37.2668 12.7109 35.5344C13.0808 35.1319 13.6622 34.9993 14.1713 35.2011Z" fill="white"/>
</svg>
